<svg version="1.1" width="107.5" height="74.75" viewBox="-1 -0.75 107.5 74.75" xmlns="http://www.w3.org/2000/svg" xmlns:xlink="http://www.w3.org/1999/xlink">
  <!-- Exported by Scratch - http://scratch.mit.edu/ -->
  <g id="ID0.9333073226734996">
    <g id="ID0.06676657311618328">
      <path id="ID0.26268211752176285" fill="#FFFF00" stroke="none" d="M 9 4 L 76.25 4 L 76.25 69.25 L 9 69.25 L 9 4 Z " stroke-width="1"/>
      <path id="ID0.12959085311740637" fill="#FFFF00" stroke="none" d="M 0 12 L 82.75 12 L 82.75 59.75 L 0 59.75 L 0 12 Z " stroke-width="1"/>
      <path id="ID0.9528552736155689" fill="#FFFF00" stroke="none" d="M 19.75 0.25 L 63.75 0.25 L 63.75 73 L 19.75 73 L 19.75 0.25 Z " stroke-width="1"/>
    </g>
    <path id="ID0.08125680778175592" fill="#000000" stroke="none" d="M 19.5 23.25 L 31 23.25 L 31 36.75 L 19.5 36.75 L 19.5 23.25 Z " stroke-width="1"/>
    <path id="ID0.5204487293958664" fill="#000000" stroke="none" d="M 50.75 28 L 57.75 28 L 57.75 36.5 L 50.75 36.5 L 50.75 28 Z " stroke-width="1"/>
    <path id="ID0.5511067770421505" fill="none" stroke="#000000" stroke-width="2" stroke-linecap="round" d="M 53 18.25 L 64.25 31 "/>
    <path id="ID0.40758889773860574" fill="none" stroke="#000000" stroke-width="2" stroke-linecap="round" d="M 26.5 11.75 L 13.25 24.5 "/>
    <path id="ID0.8562403027899563" fill="#000000" stroke="none" d="M 35.5 38.75 L 50.25 38.75 L 50.25 43 L 35.5 43 L 35.5 38.75 Z " stroke-width="1"/>
    <path id="ID0.8927074843086302" fill="#000000" stroke="none" d="M 24 42.75 L 24.5 42.75 L 24.5 42.75 L 24 42.75 L 24 42.75 Z " stroke-width="1"/>
    <path id="ID0.05305434949696064" fill="#000000" stroke="none" d="M 31 41.5 L 37.75 41.5 L 37.75 46.5 L 31 46.5 L 31 41.5 Z " stroke-width="1"/>
    <path id="ID0.18949700891971588" fill="#000000" stroke="none" d="M 47 45.75 L 47.25 45.75 L 47.25 45.75 L 47 45.75 L 47 45.75 Z " stroke-width="1"/>
    <path id="ID0.8765600905753672" fill="#000000" stroke="none" d="M 48.5 41.5 L 54.25 41.5 L 54.25 46.75 L 48.5 46.75 L 48.5 41.5 Z " stroke-width="1"/>
  </g>
  <g id="ID0.15357894403859973">
    <path id="ID0.4503265209496021" fill="#FF0000" stroke="none" d="M 81 46 L 94 46 L 94 64.25 L 81 64.25 L 81 46 Z " stroke-width="1"/>
    <path id="ID0.03499055374413729" fill="#FF0000" stroke="none" d="M 97.75 38 L 99.25 38 L 99.25 38.25 L 97.75 38.25 L 97.75 38 Z " stroke-width="1"/>
    <path id="ID0.9560288176871836" fill="#FF0000" stroke="none" d="M 69.75 34.75 L 86.5 34.75 L 86.5 50.75 L 69.75 50.75 L 69.75 34.75 Z " stroke-width="1"/>
    <path id="ID0.44869368989020586" fill="#FF0000" stroke="none" d="M 85.75 31.25 L 105.5 31.25 L 105.5 52.25 L 85.75 52.25 L 85.75 31.25 Z " stroke-width="1"/>
    <path id="ID0.8810859574005008" fill="#FF0000" stroke="none" d="M 76.5 49 L 86.5 49 L 86.5 54.75 L 76.5 54.75 L 76.5 49 Z " stroke-width="1"/>
    <path id="ID0.11396207753568888" fill="#FF0000" stroke="none" d="M 87.75 50 L 97.5 50 L 97.5 56.25 L 87.75 56.25 L 87.75 50 Z " stroke-width="1"/>
    <path id="ID0.8102285182103515" fill="#FF0000" stroke="none" d="M 76.75 31.5 L 84.5 31.5 L 84.5 38.25 L 76.75 38.25 L 76.75 31.5 Z " stroke-width="1"/>
    <path id="ID0.21533829905092716" fill="#FF0000" stroke="none" d="M 91.75 26.75 L 91.75 26.75 L 91.75 27 L 91.75 27 L 91.75 26.75 Z " stroke-width="1"/>
    <path id="ID0.023132512345910072" fill="#FF0000" stroke="none" d="M 90.75 30 L 98.5 30 L 98.5 34.25 L 90.75 34.25 L 90.75 30 Z " stroke-width="1"/>
  </g>
</svg>