<svg version="1.1" width="122.61092376708984" height="95.5302963256836" viewBox="0.3890770673751831 -0.25 122.61092376708984 95.5302963256836" xmlns="http://www.w3.org/2000/svg" xmlns:xlink="http://www.w3.org/1999/xlink">
  <defs>
    <linearGradient id="grad_1" y2="1" x2="0">
      <stop offset="0" stop-color="#B2B2B2" stop-opacity="1"/>
      <stop offset="1" stop-color="#E5E5E5" stop-opacity="1"/>
    </linearGradient>
    <linearGradient id="grad_2" y2="1" x2="0">
      <stop offset="0" stop-color="#B2B2B2" stop-opacity="1"/>
      <stop offset="1" stop-color="#E5E5E5" stop-opacity="1"/>
    </linearGradient>
  <linearGradient id="grad_1-,0,0,1,-220,-122" y2="94.2803" x2="1.3891" x1="1.3891" y1="48.5" gradientUnits="userSpaceOnUse">
      <stop offset="0" stop-color="#B2B2B2" stop-opacity="1"/>
      <stop offset="1" stop-color="#E5E5E5" stop-opacity="1"/>
    </linearGradient><linearGradient id="grad_2-,0,0,1,-224.5,-119.25" y2="68.25" x2="10.75" x1="10.75" y1="58.25" gradientUnits="userSpaceOnUse">
      <stop offset="0" stop-color="#B2B2B2" stop-opacity="1"/>
      <stop offset="1" stop-color="#E5E5E5" stop-opacity="1"/>
    </linearGradient></defs>
  <!-- Exported by Scratch - http://scratch.mit.edu/ -->
  <path id="ID0.03500700416043401" fill="none" stroke="#FF9999" stroke-width="2" d="M 122 0.75 C 122 0.75 122 0.764 122 0.787 C 122 0.809 122 0.841 122 0.875 C 122 0.909 122 0.941 122 0.963 C 122 0.986 122 1 122 1 C 122 1 122 0.986 122 0.963 C 122 0.941 122 0.909 122 0.875 C 122 0.841 122 0.809 122 0.787 C 122 0.764 122 0.75 122 0.75 Z "/>
  <g id="ID0.35050310054793954">
    <path id="ID0.8152483301237226" fill="#CCFFDD" stroke="url(#grad_1-,0,0,1,-220,-122)" stroke-width="2" stroke-linecap="round" d="M 16.25 48.5 C 20.319 48.5 24.041 50.13 26.677 52.823 C 29.416 55.623 32.108 60.243 31.25 64.25 C 28.343 75.793 23.721 83.987 18 92.75 C 16.57 94.941 14.022 94.71 12.75 92.5 C 7.666 83.346 3.308 73.54 1.5 63.25 C 0.85 59.548 3.156 55.49 5.823 52.823 C 8.49 50.156 12.181 48.5 16.25 48.5 Z " style="stroke-linejoin: round; stroke-linecap: round;"/>
    <path id="ID0.9986447189003229" fill="#7F7F7F" stroke="url(#grad_2-,0,0,1,-224.5,-119.25)" stroke-width="2" d="M 15.75 58.25 C 17.129 58.25 18.379 58.81 19.285 59.715 C 20.19 60.621 20.75 61.871 20.75 63.25 C 20.75 64.629 20.19 65.879 19.285 66.785 C 18.379 67.69 17.129 68.25 15.75 68.25 C 14.371 68.25 13.121 67.69 12.215 66.785 C 11.31 65.879 10.75 64.629 10.75 63.25 C 10.75 61.871 11.31 60.621 12.215 59.715 C 13.121 58.81 14.371 58.25 15.75 58.25 Z " style="stroke-linejoin: round; stroke-linecap: round;"/>
  </g>
</svg>