<svg version="1.1" width="234.30805353561547" height="163.30805353561547" viewBox="-0.904026767807729 -1.3211267652089664 234.30805353561547 163.30805353561547" xmlns="http://www.w3.org/2000/svg" xmlns:xlink="http://www.w3.org/1999/xlink">
  <!-- Exported by Scratch - http://scratch.mit.edu/ -->
  <g id="ID0.8818968739360571">
    <path id="ID0.3813701272010803" fill="#000000" stroke="none" d="M 0.5 0.0829 L 232 0.0829 L 232 160.5829 L 0.5 160.5829 L 0.5 0.0829 Z " stroke-width="1.0337566037651642"/>
    <g id="ID0.15183778014034033">
      <path id="ID0.6448049261234701" fill="none" stroke="#FFFFFF" stroke-width="2.1278622150421143" d="M 59.0488 109.5457 L 117.565 109.5457 L 117.565 149.9751 L 59.0488 149.9751 L 59.0488 109.5457 Z "/>
      <path id="ID0.5249449112452567" fill="none" stroke="#FFFFFF" stroke-width="2.1278622150421143" d="M 87.9229 125.759 C 89.0975 125.759 90.1614 126.2357 90.9317 127.0059 C 91.702 127.7762 92.1786 128.8402 92.1786 130.0147 C 92.1786 131.1893 91.702 132.2533 90.9317 133.0235 C 90.1614 133.7938 89.0975 134.2705 87.9229 134.2705 C 86.7483 134.2705 85.6844 133.7938 84.9141 133.0235 C 84.1438 132.2533 83.6671 131.1893 83.6671 130.0147 C 83.6671 128.8402 84.1438 127.7762 84.9141 127.0059 C 85.6844 126.2357 86.7483 125.759 87.9229 125.759 Z "/>
      <text id="ID0.012113474775105715" fill="#FFFFFF" text-anchor="start" font-family="Sans Serif" font-size="22" transform="matrix(0.393572, 0, 0, 0.393572, 77.5371, 135.169)" stroke-width="1" alignment-baseline="text-before-edge" xml:space="preserve"><tspan x="0" style="white-space: pre" dy="1.13em">YOU</tspan></text>
      <path id="ID0.005012819543480873" fill="none" stroke="#FFFFFF" stroke-width="2.1278622150421143" d="M 18.8961 137.4447 L 54.5378 137.4447 L 54.5378 149.4139 L 18.8961 149.4139 L 18.8961 137.4447 Z "/>
      <path id="ID0.005012819543480873" fill="none" stroke="#FFFFFF" stroke-width="2.1278622150421143" d="M 122.5961 137.7947 L 158.2378 137.7947 L 158.2378 149.7639 L 122.5961 149.7639 L 122.5961 137.7947 Z "/>
      <path id="ID0.7680205977521837" fill="#CCFFDD" stroke="#FFFFFF" stroke-width="2.1278622150421143" d="M 146.5679 97.262 L 158.0052 97.262 L 158.0052 133.7017 L 146.5679 133.7017 L 146.5679 97.262 Z "/>
      <path id="ID0.7680205977521837" fill="none" stroke="#FFFFFF" stroke-width="2.1278622150421143" d="M 19.7179 96.612 L 31.1552 96.612 L 31.1552 133.0517 L 19.7179 133.0517 L 19.7179 96.612 Z "/>
      <path id="ID0.07189068151637912" fill="none" stroke="#FFFFFF" stroke-width="2.808053535615458" d="M 18.8211 42.8957 L 120.4587 42.8957 L 120.4587 92.1759 L 18.8211 92.1759 L 18.8211 42.8957 Z "/>
      <path id="ID0.7336778393946588" fill="none" stroke="#FFFFFF" stroke-width="2.1869852176202182" d="M 124.4733 42.4053 L 158.7851 42.4053 L 158.7851 92.3466 L 124.4733 92.3466 L 124.4733 42.4053 Z "/>
      <path id="ID0.36882741330191493" fill="none" stroke="#FFFFFF" stroke-width="2.1278622150421143" d="M 162.5228 43.2335 L 180.0776 43.2335 L 180.0776 64.5121 L 162.5228 64.5121 L 162.5228 43.2335 Z "/>
      <path id="ID0.36882741330191493" fill="none" stroke="#FFFFFF" stroke-width="2.1278622150421143" d="M 162.7228 69.8835 L 180.2776 69.8835 L 180.2776 91.1621 L 162.7228 91.1621 L 162.7228 69.8835 Z "/>
      <path id="ID0.03371161827817559" fill="none" stroke="#FFFFFF" stroke-width="2.1278622150421143" d="M 18.9003 8.1918 L 57.2018 8.1918 L 57.2018 37.1839 L 18.9003 37.1839 L 18.9003 8.1918 Z "/>
      <path id="ID0.2123469663783908" fill="none" stroke="#FFFFFF" stroke-width="2.2325084599292566" d="M 83.764 8.2979 L 119.9377 8.2979 L 119.9377 36.2874 L 83.764 36.2874 L 83.764 8.2979 Z "/>
    </g>
    <path id="ID0.5286605493165553" fill="none" stroke="#FFFFFF" stroke-width="1.4265872356450395" stroke-linecap="round" d="M 18.2976 158.472 L 23.7696 152.5948 L 29.2416 158.472 L 18.2976 158.472 Z "/>
  </g>
</svg>