<svg version="1.1" width="203.0583953857422" height="199.5747833251953" viewBox="-0.10420000553131104 2.86232328414917 203.0583953857422 199.5747833251953" xmlns="http://www.w3.org/2000/svg" xmlns:xlink="http://www.w3.org/1999/xlink">
  <defs>
    <radialGradient id="grad_1" cx="0.21760000000000002" cy="0.2052" r="1.03324">
      <stop offset="0" stop-color="#CCCC00" stop-opacity="1"/>
      <stop offset="1" stop-color="#999900" stop-opacity="1"/>
    </radialGradient>
    <linearGradient id="grad_2" x2="1">
      <stop offset="0" stop-color="#666666" stop-opacity="1"/>
      <stop offset="1" stop-color="#000000" stop-opacity="1"/>
    </linearGradient>
    <linearGradient id="grad_3" y2="1" x2="0">
      <stop offset="0" stop-color="#666666" stop-opacity="1"/>
      <stop offset="1" stop-color="#000000" stop-opacity="1"/>
    </linearGradient>
    <radialGradient id="grad_4" cx="0.23170000000000002" cy="0.2208" r="1.01296">
      <stop offset="0" stop-color="#FF0000" stop-opacity="1"/>
      <stop offset="1" stop-color="#CC0000" stop-opacity="1"/>
    </radialGradient>
    <radialGradient id="grad_5" cx="0.23170000000000002" cy="0.2208" r="1.01296">
      <stop offset="0" stop-color="#FF0000" stop-opacity="1"/>
      <stop offset="1" stop-color="#CC0000" stop-opacity="1"/>
    </radialGradient>
    <radialGradient id="grad_6" cx="0.23170000000000002" cy="0.2208" r="1.01296">
      <stop offset="0" stop-color="#FF0000" stop-opacity="1"/>
      <stop offset="1" stop-color="#CC0000" stop-opacity="1"/>
    </radialGradient>
    <linearGradient id="grad_7" y2="1" x2="0">
      <stop offset="0" stop-color="#666666" stop-opacity="1"/>
      <stop offset="1" stop-color="#000000" stop-opacity="1"/>
    </linearGradient>
    <radialGradient id="grad_8" cx="0.23170000000000002" cy="0.2208" r="1.01296">
      <stop offset="0" stop-color="#FF0000" stop-opacity="1"/>
      <stop offset="1" stop-color="#CC0000" stop-opacity="1"/>
    </radialGradient>
    <radialGradient id="grad_9" cx="0.23170000000000002" cy="0.2208" r="1.01296">
      <stop offset="0" stop-color="#FF0000" stop-opacity="1"/>
      <stop offset="1" stop-color="#CC0000" stop-opacity="1"/>
    </radialGradient>
    <radialGradient id="grad_10" cx="0.23170000000000002" cy="0.2208" r="1.01296">
      <stop offset="0" stop-color="#FF0000" stop-opacity="1"/>
      <stop offset="1" stop-color="#CC0000" stop-opacity="1"/>
    </radialGradient>
    <radialGradient id="grad_11" cx="0.1137" cy="0.2839" r="1.15219">
      <stop offset="0" stop-color="#CCCC00" stop-opacity="1"/>
      <stop offset="1" stop-color="#999900" stop-opacity="1"/>
    </radialGradient>
    <linearGradient id="grad_12" y2="1" x2="0">
      <stop offset="0" stop-color="#330066" stop-opacity="1"/>
      <stop offset="1" stop-color="#000000" stop-opacity="1"/>
    </linearGradient>
    <linearGradient id="grad_13" y2="1" x2="0">
      <stop offset="0" stop-color="#330066" stop-opacity="1"/>
      <stop offset="1" stop-color="#000000" stop-opacity="1"/>
    </linearGradient>
    <linearGradient id="grad_14" y2="1" x2="0">
      <stop offset="0" stop-color="#000000" stop-opacity="1"/>
      <stop offset="1" stop-color="#CC0000" stop-opacity="1"/>
    </linearGradient>
    <radialGradient id="grad_15" cx="0.3357" cy="0.1477" r="1.10799">
      <stop offset="0" stop-color="#FF9400" stop-opacity="1"/>
      <stop offset="1" stop-color="#CC7700" stop-opacity="1"/>
    </radialGradient>
    <linearGradient id="grad_16" x2="1">
      <stop offset="0" stop-color="#FF9999" stop-opacity="1"/>
      <stop offset="1" stop-color="#FF9999" stop-opacity="0"/>
    </linearGradient>
    <linearGradient id="grad_17" x2="1">
      <stop offset="0" stop-color="#FF9999" stop-opacity="1"/>
      <stop offset="1" stop-color="#FF9999" stop-opacity="0"/>
    </linearGradient>
    <radialGradient id="grad_18" cx="0.2372" cy="0.1632" r="1.0878400000000001">
      <stop offset="0" stop-color="#666666" stop-opacity="1"/>
      <stop offset="1" stop-color="#000000" stop-opacity="1"/>
    </radialGradient>
    <radialGradient id="grad_19" cx="0.2372" cy="0.1632" r="1.0878400000000001">
      <stop offset="0" stop-color="#666666" stop-opacity="1"/>
      <stop offset="1" stop-color="#000000" stop-opacity="1"/>
    </radialGradient>
    <linearGradient id="grad_20" y2="1" x2="0">
      <stop offset="0" stop-color="#666666" stop-opacity="1"/>
      <stop offset="1" stop-color="#000000" stop-opacity="1"/>
    </linearGradient>
    <radialGradient id="grad_21" cx="0.3679" cy="0.1509" r="1.1038299999999999">
      <stop offset="0" stop-color="#FFFFFF" stop-opacity="1"/>
      <stop offset="1" stop-color="#CCCCCC" stop-opacity="1"/>
    </radialGradient>
    <radialGradient id="grad_22" cx="0.3679" cy="0.1509" r="1.1038299999999999">
      <stop offset="0" stop-color="#FFFFFF" stop-opacity="1"/>
      <stop offset="1" stop-color="#CCCCCC" stop-opacity="1"/>
    </radialGradient>
    <linearGradient id="grad_23" y2="1" x2="0">
      <stop offset="0" stop-color="#666666" stop-opacity="1"/>
      <stop offset="1" stop-color="#000000" stop-opacity="1"/>
    </linearGradient>
    <radialGradient id="grad_24" cx="0.3679" cy="0.1509" r="1.1038299999999999">
      <stop offset="0" stop-color="#FFFFFF" stop-opacity="1"/>
      <stop offset="1" stop-color="#CCCCCC" stop-opacity="1"/>
    </radialGradient>
    <radialGradient id="grad_25" cx="0.3679" cy="0.1509" r="1.1038299999999999">
      <stop offset="0" stop-color="#FFFFFF" stop-opacity="1"/>
      <stop offset="1" stop-color="#CCCCCC" stop-opacity="1"/>
    </radialGradient>
  <radialGradient id="grad_1-.614355206489563,0,0,0.7885753512382507,-25.8,-81.95" cx="73.127" cy="133.6839" r="103.992" gradientUnits="userSpaceOnUse">
      <stop offset="0" stop-color="#CCCC00" stop-opacity="1"/>
      <stop offset="1" stop-color="#999900" stop-opacity="1"/>
    </radialGradient><linearGradient id="grad_2-.5256515145301819,0,0,0.5256515145301819,-20.25,-42.55" x2="114.3127" x1="94.6392" y1="100.9529" y2="100.9529" gradientUnits="userSpaceOnUse">
      <stop offset="0" stop-color="#666666" stop-opacity="1"/>
      <stop offset="1" stop-color="#000000" stop-opacity="1"/>
    </linearGradient><linearGradient id="grad_3-.5209071636199951,0.07046405971050262,-0.07046405971050262,0.5209071636199951,-5.5,-63.45" y2="33.7021" x2="111.4355" x1="115.9892" y1="0.0389" gradientUnits="userSpaceOnUse">
      <stop offset="0" stop-color="#666666" stop-opacity="1"/>
      <stop offset="1" stop-color="#000000" stop-opacity="1"/>
    </linearGradient><radialGradient id="grad_4-.5209071636199951,0.07046405971050262,-0.07046405971050262,0.5209071636199951,-7.95,-66.4" cx="152.605" cy="11.8898" r="14.5895" gradientUnits="userSpaceOnUse">
      <stop offset="0" stop-color="#FF0000" stop-opacity="1"/>
      <stop offset="1" stop-color="#CC0000" stop-opacity="1"/>
    </radialGradient><radialGradient id="grad_5-.45531851053237915,0.06159175932407379,-0.06159175932407379,0.45531851053237915,15.3,-50.4" cx="155.6391" cy="18.0322" r="12.7525" gradientUnits="userSpaceOnUse">
      <stop offset="0" stop-color="#FF0000" stop-opacity="1"/>
      <stop offset="1" stop-color="#CC0000" stop-opacity="1"/>
    </radialGradient><radialGradient id="grad_6-.2851681709289551,0.03857521712779999,-0.03857521712779999,0.2851681709289551,69.15,-18.1" cx="157.0451" cy="24.7594" r="7.987" gradientUnits="userSpaceOnUse">
      <stop offset="0" stop-color="#FF0000" stop-opacity="1"/>
      <stop offset="1" stop-color="#CC0000" stop-opacity="1"/>
    </radialGradient><linearGradient id="grad_7-0.5156144499778748,0.10223115980625153,0.10223115980625153,0.5156144499778748,203.45,-69.5" y2="34.6306" x2="92.6834" x1="86.0768" y1="1.3095" gradientUnits="userSpaceOnUse">
      <stop offset="0" stop-color="#666666" stop-opacity="1"/>
      <stop offset="1" stop-color="#000000" stop-opacity="1"/>
    </linearGradient><radialGradient id="grad_8-0.5156144499778748,0.10223115980625153,0.10223115980625153,0.5156144499778748,205.75,-72.55" cx="50.2907" cy="15.425" r="14.5895" gradientUnits="userSpaceOnUse">
      <stop offset="0" stop-color="#FF0000" stop-opacity="1"/>
      <stop offset="1" stop-color="#CC0000" stop-opacity="1"/>
    </radialGradient><radialGradient id="grad_9-0.45069220662117004,0.08935898542404175,0.08935898542404175,0.45069220662117004,183.45,-55.1" cx="47.5649" cy="21.7978" r="12.7525" gradientUnits="userSpaceOnUse">
      <stop offset="0" stop-color="#FF0000" stop-opacity="1"/>
      <stop offset="1" stop-color="#CC0000" stop-opacity="1"/>
    </radialGradient><radialGradient id="grad_10-0.2822706997394562,0.055965960025787354,0.055965960025787354,0.2822706997394562,131.65,-19.6" cx="46.5445" cy="28.5615" r="7.987" gradientUnits="userSpaceOnUse">
      <stop offset="0" stop-color="#FF0000" stop-opacity="1"/>
      <stop offset="1" stop-color="#CC0000" stop-opacity="1"/>
    </radialGradient><radialGradient id="grad_11-.5256515145301819,0,0,0.5256515145301819,-31.45,-32.3" cx="69.0813" cy="49.1717" r="101.1083" gradientUnits="userSpaceOnUse">
      <stop offset="0" stop-color="#CCCC00" stop-opacity="1"/>
      <stop offset="1" stop-color="#999900" stop-opacity="1"/>
    </radialGradient><linearGradient id="grad_12-.835034966468811,0,0,0.835034966468811,-96.8,-86.25" y2="78.2519" x2="106.3223" x1="106.3223" y1="57.376" gradientUnits="userSpaceOnUse">
      <stop offset="0" stop-color="#330066" stop-opacity="1"/>
      <stop offset="1" stop-color="#000000" stop-opacity="1"/>
    </linearGradient><linearGradient id="grad_13-.835034966468811,0,0,0.835034966468811,-120.1,-86.2" y2="78.3019" x2="83.0223" x1="83.0223" y1="57.426" gradientUnits="userSpaceOnUse">
      <stop offset="0" stop-color="#330066" stop-opacity="1"/>
      <stop offset="1" stop-color="#000000" stop-opacity="1"/>
    </linearGradient><linearGradient id="grad_14-.5256515145301819,0,0,0.5256515145301819,-20.25,-31.75" y2="98.0859" x2="99.4146" x1="99.4146" y1="88.0933" gradientUnits="userSpaceOnUse">
      <stop offset="0" stop-color="#000000" stop-opacity="1"/>
      <stop offset="1" stop-color="#CC0000" stop-opacity="1"/>
    </linearGradient><radialGradient id="grad_15-.5256515145301819,0,0,0.5256515145301819,-20.65,-28.7" cx="101.957" cy="77.2185" r="16.7644" gradientUnits="userSpaceOnUse">
      <stop offset="0" stop-color="#FF9400" stop-opacity="1"/>
      <stop offset="1" stop-color="#CC7700" stop-opacity="1"/>
    </radialGradient><linearGradient id="grad_16-0.5256515145301819,0,0,0.5256515145301819,284.75,-30.15" x2="125.4776" x1="138.3561" y1="71.9578" y2="71.9578" gradientUnits="userSpaceOnUse">
      <stop offset="0" stop-color="#FF9999" stop-opacity="1"/>
      <stop offset="1" stop-color="#FF9999" stop-opacity="0"/>
    </linearGradient><linearGradient id="grad_17-.5256515145301819,0,0,0.5256515145301819,-73.8,-30.95" x2="85.4724" x1="72.5939" y1="71.1578" y2="71.1578" gradientUnits="userSpaceOnUse">
      <stop offset="0" stop-color="#FF9999" stop-opacity="1"/>
      <stop offset="1" stop-color="#FF9999" stop-opacity="0"/>
    </linearGradient><radialGradient id="grad_18-.614355206489563,0,0,0.614355206489563,-27.65,-45.15" cx="99.2128" cy="129.6331" r="18.1218" gradientUnits="userSpaceOnUse">
      <stop offset="0" stop-color="#666666" stop-opacity="1"/>
      <stop offset="1" stop-color="#000000" stop-opacity="1"/>
    </radialGradient><radialGradient id="grad_19-.614355206489563,0,0,0.614355206489563,-27.2,-21.95" cx="99.6628" cy="152.8331" r="18.1218" gradientUnits="userSpaceOnUse">
      <stop offset="0" stop-color="#666666" stop-opacity="1"/>
      <stop offset="1" stop-color="#000000" stop-opacity="1"/>
    </radialGradient><linearGradient id="grad_20-.31363508105278015,0.5282663702964783,-0.5282663702964783,0.31363508105278015,194.7,-119.2" y2="136.9444" x2="128.5029" x1="176.3211" y1="108.5544" gradientUnits="userSpaceOnUse">
      <stop offset="0" stop-color="#666666" stop-opacity="1"/>
      <stop offset="1" stop-color="#000000" stop-opacity="1"/>
    </linearGradient><radialGradient id="grad_21-.614355206489563,0,0,0.614355206489563,-24.55,-34.75" cx="181.8726" cy="99.178" r="35.9416" gradientUnits="userSpaceOnUse">
      <stop offset="0" stop-color="#FFFFFF" stop-opacity="1"/>
      <stop offset="1" stop-color="#CCCCCC" stop-opacity="1"/>
    </radialGradient><radialGradient id="grad_22-.34195244312286377,0,0,0.34195244312286377,54.1,27.65" cx="168.9956" cy="102.1948" r="20.0052" gradientUnits="userSpaceOnUse">
      <stop offset="0" stop-color="#FFFFFF" stop-opacity="1"/>
      <stop offset="1" stop-color="#CCCCCC" stop-opacity="1"/>
    </radialGradient><linearGradient id="grad_23-0.31363508105278015,0.5282663702964783,0.5282663702964783,0.31363508105278015,8.05,-118.25" y2="137.8944" x2="74.2471" x1="26.4289" y1="109.5044" gradientUnits="userSpaceOnUse">
      <stop offset="0" stop-color="#666666" stop-opacity="1"/>
      <stop offset="1" stop-color="#000000" stop-opacity="1"/>
    </linearGradient><radialGradient id="grad_24-0.614355206489563,0,0,0.614355206489563,227.4,-33.8" cx="20.9774" cy="100.128" r="35.9416" gradientUnits="userSpaceOnUse">
      <stop offset="0" stop-color="#FFFFFF" stop-opacity="1"/>
      <stop offset="1" stop-color="#CCCCCC" stop-opacity="1"/>
    </radialGradient><radialGradient id="grad_25-0.34195244312286377,0,0,0.34195244312286377,148.65,28.55" cx="33.7544" cy="103.0948" r="20.0052" gradientUnits="userSpaceOnUse">
      <stop offset="0" stop-color="#FFFFFF" stop-opacity="1"/>
      <stop offset="1" stop-color="#CCCCCC" stop-opacity="1"/>
    </radialGradient></defs>
  <!-- Exported by Scratch - http://scratch.mit.edu/ -->
  <g id="ID0.16202382510527968">
    <g id="ID0.9219234748743474">
      <path id="ID0.6008099219761789" fill="url(#grad_1-.614355206489563,0,0,0.7885753512382507,-25.8,-81.95)" stroke="none" stroke-linecap="round" d="M 96.7639 116.7316 C 103.0364 115.4935 109.5873 116.0684 115.8089 117.6779 C 124.1709 119.8401 134.3796 119.8023 139.7687 128.087 C 145.798 136.9057 143.1268 151.089 145.6051 162.3112 C 147.6816 171.6953 157.0555 182.6659 153.8989 190.1479 C 150.9113 196.6718 139.8959 188.7245 133.3162 190.3238 C 123.1787 192.796 115.2437 201.9371 103.6754 201.9371 C 92.1071 201.9371 84.1653 192.8378 74.0346 190.3238 C 66.6242 188.4896 54.084 196.3217 50.9944 189.5565 C 47.9398 182.315 59.4946 171.8025 61.7456 162.3112 C 64.4273 150.9818 59.5487 135.6313 66.0461 127.1802 C 73.4583 117.5264 86.3407 118.7858 96.7639 116.7316 Z " stroke-width="0.7068533809501671"/>
      <g id="ID0.6867602141574025">
        <path id="ID0.8294679042883217" fill="url(#grad_2-.5256515145301819,0,0,0.5256515145301819,-20.25,-42.55)" stroke="none" stroke-linecap="round" d="M 104.5265 100.9529 C 107.9165 100.9529 111.1997 101.8323 113.2124 104.1688 C 114.8913 106.1174 114.1197 109.2808 114.1854 111.8601 C 114.1197 114.4831 114.9097 117.687 113.2124 119.6829 C 111.2149 122.032 107.9165 122.8988 104.5265 122.8988 C 101.1366 122.8988 97.9228 121.9574 95.8407 119.6829 C 94.219 117.912 94.802 114.9289 94.7363 112.5172 C 94.802 109.7155 94.065 106.3334 95.8407 104.1688 C 97.7961 101.785 101.1366 100.9529 104.5265 100.9529 Z " stroke-width="0.5256515145301819"/>
        <g id="ID0.8399962349794805">
          <g id="ID0.35229860013350844">
            <g id="ID0.6519480543211102">
              <path id="ID0.09345451323315501" fill="url(#grad_3-.5209071636199951,0.07046405971050262,-0.07046405971050262,0.5209071636199951,-5.5,-63.45)" stroke="none" stroke-linecap="round" d="M 123.9378 24.2098 C 129.5083 18.588 131.2696 8.8689 137.8662 4.0807 C 140.8054 1.9471 145.1074 5.1261 148.5102 6.3693 C 149.3719 6.6688 148.2193 7.8412 148.6374 7.9778 C 149.1606 8.1488 149.6647 6.7005 150.4178 6.9721 C 153.4303 8.0575 156.9461 9.0291 158.8673 11.5629 C 159.6765 12.6389 157.6763 14.1522 156.4819 14.6881 C 154.7702 15.4565 152.7102 15.5369 150.8292 15.3026 C 148.5544 14.9477 146.3446 14.034 144.3033 12.9611 C 143.6064 12.5953 143.3021 11.0763 142.9766 11.0047 C 142.7219 10.9506 143.3943 12.3868 142.8954 12.585 C 141.1949 13.2589 138.7066 11.8004 137.4321 13.1721 C 134.0192 16.8738 131.7309 21.5281 130.1528 26.4302 C 129.7195 27.7789 132.305 28.6442 132.3632 30.0572 C 132.4514 32.1734 132.2785 35.287 130.6148 36.1197 C 129.2144 36.8182 127.7412 33.9094 126.1311 32.9936 C 123.4235 31.4662 120.5586 30.1801 117.6809 28.8005 C 115.9573 27.9743 112.5512 27.4971 112.4227 26.4979 C 112.3033 25.5773 115.6996 25.0363 117.3562 24.6992 C 119.5071 24.2603 122.3914 25.7713 123.9378 24.2098 Z " stroke-width="0.5256514594496182"/>
              <g id="ID0.8284364389255643">
                <path id="ID0.7914896695874631" fill="url(#grad_4-.5209071636199951,0.07046405971050262,-0.07046405971050262,0.5209071636199951,-7.95,-66.4)" stroke="none" d="M 156.8607 9.2564 C 158.8297 9.5228 160.5057 10.5637 161.6228 12.0303 C 162.7399 13.4969 163.2981 15.3892 163.0318 17.3582 C 162.7654 19.3272 161.7245 21.0032 160.2579 22.1203 C 158.7913 23.2374 156.899 23.7956 154.93 23.5293 C 152.9609 23.2629 151.285 22.222 150.1679 20.7554 C 149.0508 19.2888 148.4925 17.3965 148.7589 15.4275 C 149.0252 13.4584 150.0662 11.7825 151.5328 10.6654 C 152.9994 9.5483 154.8917 8.99 156.8607 9.2564 Z " stroke-width="0.5256514594496182"/>
                <path id="ID0.7914896695874631" fill="url(#grad_5-.45531851053237915,0.06159175932407379,-0.06159175932407379,0.45531851053237915,15.3,-50.4)" stroke="none" d="M 159.359 15.7303 C 161.0801 15.9631 162.545 16.873 163.5214 18.1549 C 164.4979 19.4369 164.9859 21.0909 164.753 22.812 C 164.5202 24.5331 163.6104 25.998 162.3284 26.9745 C 161.0465 27.9509 159.3925 28.4389 157.6714 28.206 C 155.9503 27.9732 154.4853 27.0634 153.5089 25.7814 C 152.5325 24.4995 152.0445 22.8455 152.2773 21.1244 C 152.5101 19.4033 153.42 17.9384 154.7019 16.9619 C 155.9839 15.9855 157.6379 15.4975 159.359 15.7303 Z " stroke-width="0.45946544032174924"/>
                <path id="ID0.7914896695874631" fill="url(#grad_6-.2851681709289551,0.03857521712779999,-0.03857521712779999,0.2851681709289551,69.15,-18.1)" stroke="none" d="M 159.3748 23.3177 C 160.4528 23.4636 161.3703 24.0334 161.9818 24.8363 C 162.5934 25.6392 162.899 26.6751 162.7532 27.753 C 162.6073 28.831 162.0375 29.7484 161.2346 30.36 C 160.4317 30.9715 159.3958 31.2772 158.3179 31.1313 C 157.2399 30.9855 156.3224 30.4157 155.7109 29.6128 C 155.0993 28.8099 154.7937 27.774 154.9395 26.6961 C 155.0854 25.6181 155.6552 24.7006 156.4581 24.0891 C 157.261 23.4775 158.2969 23.1719 159.3748 23.3177 Z " stroke-width="0.2877654132925336"/>
              </g>
            </g>
            <g id="ID0.6519480543211102">
              <path id="ID0.09345451323315501" fill="url(#grad_7-0.5156144499778748,0.10223115980625153,0.10223115980625153,0.5156144499778748,203.45,-69.5)" stroke="none" stroke-linecap="round" d="M 79.6233 25.9218 C 73.719 20.6517 71.3657 11.0587 64.4883 6.6835 C 61.424 4.7338 57.3247 8.1703 54.0045 9.6195 C 53.1627 9.9713 54.3849 11.0708 53.976 11.2328 C 53.4642 11.4356 52.8724 10.0208 52.1374 10.338 C 49.197 11.6059 45.7472 12.7909 43.9848 15.4377 C 43.243 16.5612 45.3322 17.9491 46.5571 18.4109 C 48.3127 19.073 50.3737 19.0272 52.2369 18.6781 C 54.4857 18.1845 56.6354 17.1372 58.6072 15.9414 C 59.2803 15.5335 59.491 13.9988 59.8115 13.9074 C 60.0625 13.8378 59.4792 15.3124 59.9893 15.4798 C 61.7279 16.0482 64.1222 14.4401 65.4784 15.7312 C 69.1115 19.217 71.6805 23.7224 73.5559 28.5187 C 74.071 29.8382 71.5433 30.8603 71.5718 32.2742 C 71.6133 34.3918 71.9766 37.489 73.6881 38.2182 C 75.1287 38.8296 76.4209 35.8361 77.9719 34.8234 C 80.5809 33.1331 83.3617 31.6739 86.1495 30.1207 C 87.8193 29.1905 91.1898 28.5056 91.2568 27.5004 C 91.3197 26.5743 87.8965 26.2423 86.2225 26.0072 C 84.0487 25.7009 81.2623 27.3856 79.6233 25.9218 Z " stroke-width="0.5256514729945286"/>
              <g id="ID0.8284364389255643">
                <path id="ID0.7914896695874631" fill="url(#grad_8-0.5156144499778748,0.10223115980625153,0.10223115980625153,0.5156144499778748,205.75,-72.55)" stroke="none" d="M 45.8817 13.0571 C 43.9327 13.4435 42.3236 14.5851 41.2984 16.1174 C 40.2732 17.6497 39.8319 19.5726 40.2183 21.5216 C 40.6048 23.4706 41.7464 25.0797 43.2786 26.1048 C 44.8109 27.13 46.7338 27.5714 48.6828 27.1849 C 50.6318 26.7985 52.2409 25.6569 53.2661 24.1246 C 54.2913 22.5924 54.7326 20.6695 54.3462 18.7204 C 53.9597 16.7714 52.8181 15.1624 51.2859 14.1372 C 49.7536 13.112 47.8307 12.6707 45.8817 13.0571 Z " stroke-width="0.5256514729945286"/>
                <path id="ID0.7914896695874631" fill="url(#grad_9-0.45069220662117004,0.08935898542404175,0.08935898542404175,0.45069220662117004,183.45,-55.1)" stroke="none" d="M 43.7111 19.7281 C 42.0075 20.0659 40.601 21.0637 39.7049 22.4031 C 38.8088 23.7424 38.423 25.4232 38.7608 27.1268 C 39.0986 28.8304 40.0965 30.2369 41.4358 31.133 C 42.7751 32.0291 44.4559 32.4148 46.1595 32.0771 C 47.8631 31.7393 49.2696 30.7414 50.1657 29.4021 C 51.0618 28.0628 51.4476 26.382 51.1098 24.6784 C 50.772 22.9747 49.7741 21.5683 48.4348 20.6722 C 47.0955 19.7761 45.4147 19.3903 43.7111 19.7281 Z " stroke-width="0.4594654430804057"/>
                <path id="ID0.7914896695874631" fill="url(#grad_10-0.2822706997394562,0.055965960025787354,0.055965960025787354,0.2822706997394562,131.65,-19.6)" stroke="none" d="M 44.1308 27.2652 C 43.0639 27.4768 42.183 28.1017 41.6218 28.9405 C 41.0605 29.7794 40.8189 30.8321 41.0305 31.899 C 41.242 32.966 41.867 33.8469 42.7058 34.4081 C 43.5446 34.9694 44.5973 35.211 45.6643 34.9994 C 46.7313 34.7879 47.6122 34.1629 48.1734 33.3241 C 48.7346 32.4852 48.9762 31.4326 48.7647 30.3656 C 48.5531 29.2986 47.9282 28.4177 47.0893 27.8565 C 46.2505 27.2952 45.1978 27.0536 44.1308 27.2652 Z " stroke-width="0.287765419418335"/>
              </g>
            </g>
          </g>
          <g id="ID0.36061832308769226">
            <path id="ID0.15881803212687373" fill="url(#grad_11-.5256515145301819,0,0,0.5256515145301819,-31.45,-32.3)" stroke="none" stroke-linecap="round" d="M 104.0367 24.996 C 115.9648 24.996 126.3238 30.2888 134.6002 37.475 C 141.186 43.4169 141.1598 48.1031 143.3291 53.9068 C 145.8297 60.5937 150.1684 67.814 148.8485 74.9329 C 147.0097 83.6519 141.595 92.0986 134.6002 97.6726 C 126.0031 104.5234 115.9648 110.1516 104.0367 110.1516 C 92.1086 110.1516 82.2626 104.2753 73.4732 97.6726 C 66.6907 92.5754 61.3685 84.4493 59.2249 75.9842 C 57.6553 70.006 60.9679 63.6367 63.1673 57.5864 C 65.7403 50.5148 66.4967 43.8632 73.4732 37.475 C 81.636 30.1406 92.1086 24.996 104.0367 24.996 Z " stroke-width="0.5256515145301819"/>
            <path id="ID0.15881803212687373" fill="#FFD499" stroke="none" stroke-linecap="round" d="M 103.9101 34.5272 C 113.9606 34.5272 122.689 38.9869 129.6626 45.0419 C 135.2118 50.0485 135.1897 53.9971 137.0176 58.8872 C 139.1245 64.5215 142.7803 70.6053 141.6681 76.6036 C 140.1188 83.9502 135.5564 91.0673 129.6626 95.7639 C 122.4188 101.5364 113.9606 106.2786 103.9101 106.2786 C 93.8595 106.2786 85.5634 101.3273 78.1575 95.7639 C 72.4426 91.469 67.9582 84.6221 66.152 77.4895 C 64.8295 72.4523 67.6207 67.0855 69.4738 61.9876 C 71.6419 56.0291 72.2792 50.4246 78.1575 45.0419 C 85.0355 38.862 93.8595 34.5272 103.9101 34.5272 Z " stroke-width="0.4429100453853607"/>
            <g id="ID0.7995284404605627">
              <path id="ID0.7852458581328392" fill="#FFFFFF" stroke="none" d="M 116.7084 52.6202 C 119.7356 52.6202 122.479 54.2177 124.4654 56.7992 C 126.4518 59.3801 127.6813 62.9445 127.6813 66.8785 C 127.6813 70.8125 126.4518 74.3769 124.4654 76.9579 C 122.479 79.5394 119.7356 81.1368 116.7084 81.1368 C 113.6811 81.1368 110.9377 79.5394 108.9513 76.9579 C 106.9649 74.3769 105.7354 70.8125 105.7354 66.8785 C 105.7354 62.9445 106.9649 59.3801 108.9513 56.7992 C 110.9377 54.2177 113.6811 52.6202 116.7084 52.6202 Z " stroke-width="0.5256515145301819"/>
              <path id="ID0.39819940784946084" fill="url(#grad_12-.835034966468811,0,0,0.835034966468811,-96.8,-86.25)" stroke="none" d="M 113.6288 57.376 C 115.6446 57.376 117.4716 58.5459 118.7943 60.4356 C 120.117 62.3244 120.9354 64.9339 120.9354 67.814 C 120.9354 70.694 120.117 73.3035 118.7943 75.1923 C 117.4716 77.082 115.6446 78.2519 113.6288 78.2519 C 111.613 78.2519 109.786 77.082 108.4633 75.1923 C 107.1406 73.3035 106.3223 70.694 106.3223 67.814 C 106.3223 64.9339 107.1406 62.3244 108.4633 60.4356 C 109.786 58.5459 111.613 57.376 113.6288 57.376 Z " stroke-width="0.835034966468811"/>
              <path id="ID0.9749311315827072" fill="#FFFFFF" stroke="none" d="M 110.3839 60.7459 C 110.9209 60.8686 111.3333 61.3057 111.5656 61.9125 C 111.7979 62.5199 111.8502 63.2964 111.6668 64.0989 C 111.4835 64.9014 111.0992 65.5782 110.6263 66.0244 C 110.1535 66.4702 109.5922 66.6849 109.0552 66.5622 C 108.5181 66.4395 108.1057 66.0024 107.8734 65.3955 C 107.6412 64.7882 107.5889 64.0117 107.7722 63.2092 C 107.9555 62.4067 108.3398 61.7299 108.8128 61.2836 C 109.2855 60.8379 109.8468 60.6232 110.3839 60.7459 Z " stroke-width="0.5256515208791889"/>
            </g>
            <g id="ID0.7995284404605627">
              <path id="ID0.7852458581328392" fill="#FFFFFF" stroke="none" d="M 93.4584 52.7202 C 96.4856 52.7202 99.229 54.3177 101.2154 56.8992 C 103.2018 59.4801 104.4313 63.0445 104.4313 66.9785 C 104.4313 70.9125 103.2018 74.4769 101.2154 77.0579 C 99.229 79.6394 96.4856 81.2368 93.4584 81.2368 C 90.4311 81.2368 87.6877 79.6394 85.7013 77.0579 C 83.7149 74.4769 82.4854 70.9125 82.4854 66.9785 C 82.4854 63.0445 83.7149 59.4801 85.7013 56.8992 C 87.6877 54.3177 90.4311 52.7202 93.4584 52.7202 Z " stroke-width="0.5256515145301819"/>
              <path id="ID0.39819940784946084" fill="url(#grad_13-.835034966468811,0,0,0.835034966468811,-120.1,-86.2)" stroke="none" d="M 90.3288 57.426 C 92.3446 57.426 94.1716 58.5959 95.4943 60.4856 C 96.817 62.3744 97.6354 64.9839 97.6354 67.864 C 97.6354 70.744 96.817 73.3535 95.4943 75.2423 C 94.1716 77.132 92.3446 78.3019 90.3288 78.3019 C 88.313 78.3019 86.486 77.132 85.1633 75.2423 C 83.8406 73.3535 83.0223 70.744 83.0223 67.864 C 83.0223 64.9839 83.8406 62.3744 85.1633 60.4856 C 86.486 58.5959 88.313 57.426 90.3288 57.426 Z " stroke-width="0.835034966468811"/>
              <path id="ID0.9749311315827072" fill="#FFFFFF" stroke="none" d="M 87.1839 60.7959 C 87.7209 60.9186 88.1333 61.3557 88.3656 61.9625 C 88.5979 62.5699 88.6502 63.3464 88.4668 64.1489 C 88.2835 64.9514 87.8992 65.6282 87.4263 66.0744 C 86.9535 66.5202 86.3922 66.7349 85.8552 66.6122 C 85.3181 66.4895 84.9057 66.0524 84.6734 65.4455 C 84.4412 64.8382 84.3889 64.0617 84.5722 63.2592 C 84.7555 62.4567 85.1398 61.7799 85.6128 61.3336 C 86.0855 60.8879 86.6468 60.6732 87.1839 60.7959 Z " stroke-width="0.5256515208791889"/>
            </g>
            <g id="ID0.9929197398014367">
              <path id="ID0.6963927415199578" fill="#000000" stroke="none" stroke-linecap="round" d="M 90.659 83.1816 C 95.239 84.3344 99.8595 85.0871 104.4621 85.0614 C 109.2266 85.0871 113.9323 84.2061 118.528 83.1816 C 122.073 82.3916 128.8855 78.2395 128.9049 79.542 C 128.8855 80.934 122.2129 86.7992 118.528 89.9636 C 116.6252 91.5973 114.06 92.4152 112.0841 93.9974 C 109.4516 96.1074 108.0676 101.0123 104.5935 101.2252 C 101.5984 101.3203 100.6638 96.5153 98.2857 94.6545 C 95.9376 92.8179 92.8626 91.826 90.659 89.9636 C 86.7498 86.6657 80.0225 80.2238 80.0193 78.885 C 80.0225 77.645 86.9548 82.2439 90.659 83.1816 Z " stroke-width="0.5256515145301819"/>
              <path id="ID0.6363425678573549" fill="url(#grad_14-.5256515145301819,0,0,0.5256515145301819,-20.25,-31.75)" stroke="none" stroke-linecap="round" d="M 102.6999 88.0985 C 103.6166 88.201 104.2385 89.2697 104.8025 90.0697 C 105.2256 90.6159 105.4617 92.2943 105.591 92.0409 C 105.7255 91.7792 104.9675 89.7906 105.3281 88.7556 C 105.4953 88.2804 106.5114 88.2468 106.9051 88.6242 C 108.1456 89.8374 109.4319 91.2835 109.7436 93.0528 C 109.9665 94.3207 109.1649 95.6995 108.2297 96.6109 C 107.2951 97.5219 106.0041 98.0859 104.5791 98.0859 C 103.1541 98.0859 101.8631 97.5219 100.9284 96.6109 C 99.9933 95.6995 99.4146 94.4416 99.4146 93.0528 C 99.4146 91.664 100.1994 90.556 100.9284 89.4947 C 101.3511 88.8802 101.9545 88.0181 102.6999 88.0985 Z " stroke-width="0.5256515145301819"/>
            </g>
            <g id="ID0.4693697299808264">
              <path id="ID0.49580428563058376" fill="url(#grad_15-.5256515145301819,0,0,0.5256515145301819,-20.65,-28.7)" stroke="none" d="M 104.915 75.5104 C 107.3987 75.5104 109.649 76.1585 111.2785 77.2051 C 112.9081 78.2517 113.9168 79.6972 113.9168 81.2926 C 113.9168 82.8879 112.9081 84.3335 111.2785 85.38 C 109.649 86.4266 107.3987 87.0747 104.915 87.0747 C 102.4313 87.0747 100.181 86.4266 98.5515 85.38 C 96.9219 84.3335 95.9132 82.8879 95.9132 81.2926 C 95.9132 79.6972 96.9219 78.2517 98.5515 77.2051 C 100.181 76.1585 102.4313 75.5104 104.915 75.5104 Z " stroke-width="0.5256515145301819"/>
              <path id="ID0.243019784335047" fill="#FFFFFF" stroke="none" d="M 100.6357 77.3511 C 101.1756 77.0534 101.717 76.8791 102.156 76.8381 C 102.5955 76.7969 102.9321 76.8892 103.0616 77.124 C 103.191 77.3588 103.0894 77.6927 102.82 78.0423 C 102.551 78.3917 102.1147 78.7565 101.5747 79.0542 C 101.0348 79.352 100.4934 79.5262 100.0544 79.5672 C 99.6149 79.6084 99.2783 79.5161 99.1488 79.2813 C 99.0194 79.0465 99.121 78.7126 99.3904 78.363 C 99.6594 78.0136 100.0957 77.6488 100.6357 77.3511 Z " stroke-width="0.5256515127745159"/>
            </g>
            <g id="ID0.6698684459552169">
              <path id="ID0.7300232672132552" fill="#000000" stroke="none" d="M 80.0151 74.4405 C 80.9035 74.4405 81.7083 74.9483 82.2912 75.7694 C 82.8742 76.5899 83.2348 77.7232 83.2348 78.9743 C 83.2348 80.2253 82.8742 81.3586 82.2912 82.1792 C 81.7083 83.0002 80.9035 83.508 80.0151 83.508 C 79.1268 83.508 78.322 83.0002 77.7391 82.1792 C 77.1561 81.3586 76.7955 80.2253 76.7955 78.9743 C 76.7955 77.7232 77.1561 76.5899 77.7391 75.7694 C 78.322 74.9483 79.1268 74.4405 80.0151 74.4405 Z " stroke-width="0.5256515145301819"/>
              <path id="ID0.7300232672132552" fill="#FFD499" stroke="none" d="M 79.0651 73.8905 C 79.9535 73.8905 80.7583 74.3983 81.3412 75.2194 C 81.9242 76.0399 82.2848 77.1732 82.2848 78.4243 C 82.2848 79.6753 81.9242 80.8086 81.3412 81.6292 C 80.7583 82.4502 79.9535 82.958 79.0651 82.958 C 78.1768 82.958 77.372 82.4502 76.7891 81.6292 C 76.2061 80.8086 75.8455 79.6753 75.8455 78.4243 C 75.8455 77.1732 76.2061 76.0399 76.7891 75.2194 C 77.372 74.3983 78.1768 73.8905 79.0651 73.8905 Z " stroke-width="0.5256515145301819"/>
            </g>
            <g id="ID0.6698684459552169">
              <path id="ID0.7300232672132552" fill="#000000" stroke="none" d="M 128.9849 75.8905 C 128.0965 75.8905 127.2917 76.3983 126.7088 77.2194 C 126.1258 78.0399 125.7652 79.1732 125.7652 80.4243 C 125.7652 81.6753 126.1258 82.8086 126.7088 83.6292 C 127.2917 84.4502 128.0965 84.958 128.9849 84.958 C 129.8732 84.958 130.678 84.4502 131.2609 83.6292 C 131.8439 82.8086 132.2045 81.6753 132.2045 80.4243 C 132.2045 79.1732 131.8439 78.0399 131.2609 77.2194 C 130.678 76.3983 129.8732 75.8905 128.9849 75.8905 Z " stroke-width="0.5256515145301819"/>
              <path id="ID0.7300232672132552" fill="#FFD499" stroke="none" d="M 130.0349 75.3405 C 129.1465 75.3405 128.3417 75.8483 127.7588 76.6694 C 127.1758 77.4899 126.8152 78.6232 126.8152 79.8743 C 126.8152 81.1253 127.1758 82.2586 127.7588 83.0792 C 128.3417 83.9002 129.1465 84.408 130.0349 84.408 C 130.9232 84.408 131.728 83.9002 132.3109 83.0792 C 132.8939 82.2586 133.2545 81.1253 133.2545 79.8743 C 133.2545 78.6232 132.8939 77.4899 132.3109 76.6694 C 131.728 75.8483 130.9232 75.3405 130.0349 75.3405 Z " stroke-width="0.5256515145301819"/>
            </g>
            <path id="ID0.9533660495653749" fill="url(#grad_16-0.5256515145301819,0,0,0.5256515145301819,284.75,-30.15)" stroke="none" d="M 131.9168 71.9578 C 130.1401 71.9578 128.5306 72.8341 127.3647 74.2496 C 126.1993 75.6647 125.4776 77.6196 125.4776 79.7769 C 125.4776 81.9341 126.1993 83.889 127.3647 85.3041 C 128.5306 86.7197 130.1401 87.5959 131.9168 87.5959 C 133.6935 87.5959 135.3031 86.7197 136.469 85.3041 C 137.6343 83.889 138.3561 81.9341 138.3561 79.7769 C 138.3561 77.6196 137.6343 75.6647 136.469 74.2496 C 135.3031 72.8341 133.6935 71.9578 131.9168 71.9578 Z " stroke-width="0.5256515145301819"/>
            <path id="ID0.9533660495653749" fill="url(#grad_17-.5256515145301819,0,0,0.5256515145301819,-73.8,-30.95)" stroke="none" d="M 79.0332 71.1578 C 80.8099 71.1578 82.4194 72.0341 83.5853 73.4496 C 84.7507 74.8647 85.4724 76.8196 85.4724 78.9769 C 85.4724 81.1341 84.7507 83.089 83.5853 84.5041 C 82.4194 85.9197 80.8099 86.7959 79.0332 86.7959 C 77.2565 86.7959 75.6469 85.9197 74.481 84.5041 C 73.3157 83.089 72.5939 81.1341 72.5939 78.9769 C 72.5939 76.8196 73.3157 74.8647 74.481 73.4496 C 75.6469 72.0341 77.2565 71.1578 79.0332 71.1578 Z " stroke-width="0.5256515145301819"/>
          </g>
        </g>
      </g>
      <path id="ID0.8668027091771364" fill="#000000" stroke="none" stroke-linecap="round" d="M 103.0328 143.5881 C 112.7722 143.5433 122.2504 140.3511 131.94 139.6477 C 135.6428 139.3792 139.8744 138.9553 143.1195 140.8235 C 144.9017 141.847 144.4465 144.8525 144.5018 146.9671 C 144.6031 148.968 145.3668 151.9378 143.5802 152.957 C 140.2 154.8831 135.7681 153.5874 131.94 153.9793 C 122.4661 154.9512 114.5956 156.9504 103.4935 156.9504 C 92.3915 156.9504 84.5653 154.3142 75.0471 153.9793 C 71.1471 153.8417 67.0709 156.5799 63.2533 155.4145 C 61.6461 154.9715 62.838 152.0902 62.7925 150.346 C 62.7262 147.7369 61.1393 144.2074 63.0997 142.513 C 66.2022 139.8461 71.0028 139.5567 75.0471 139.6477 C 84.4553 139.8584 93.6497 143.5433 103.0328 143.5881 Z " stroke-width="0.614355206489563"/>
      <path id="ID0.8668027091771364" fill="#000000" stroke="none" stroke-linecap="round" d="M 101.5535 179.1381 C 113.8744 179.0933 125.8744 175.9957 138.123 175.1977 C 142.215 174.9323 146.5844 174.2294 149.8953 175.7592 C 152.7126 177.0518 153.5574 180.1641 154.0144 182.5171 C 154.4007 184.5088 155.1087 187.4878 152.8486 188.507 C 148.5725 190.4331 142.9658 189.1374 138.123 189.5293 C 126.1379 190.5012 116.1812 192.5004 102.1364 192.5004 C 88.0916 192.5004 78.1909 189.8642 66.1497 189.5293 C 61.2161 189.3917 56.0594 192.1299 51.2299 190.9645 C 49.1967 190.5215 50.2086 187.5536 50.647 185.896 C 51.5819 182.3746 52.22 178.2762 55.6599 176.0664 C 58.2736 174.098 62.5296 174.9323 66.1497 175.1977 C 78.0036 176.0688 89.6833 179.0933 101.5535 179.1381 Z " stroke-width="0.7005250359028169"/>
      <path id="ID0.3396642245352268" fill="url(#grad_18-.614355206489563,0,0,0.614355206489563,-27.65,-45.15)" stroke="none" d="M 103.9756 127.1766 C 106.4754 127.1766 108.7412 128.0201 110.3815 129.3822 C 112.0218 130.7448 113.0373 132.626 113.0373 134.7025 C 113.0373 136.779 112.0218 138.6602 110.3815 140.0228 C 108.7412 141.3848 106.4754 142.2283 103.9756 142.2283 C 101.4758 142.2283 99.21 141.3848 97.5697 140.0228 C 95.9294 138.6602 94.9139 136.779 94.9139 134.7025 C 94.9139 132.626 95.9294 130.7448 97.5697 129.3822 C 99.21 128.0201 101.4758 127.1766 103.9756 127.1766 Z " stroke-width="0.614355206489563"/>
      <path id="ID0.3396642245352268" fill="url(#grad_19-.614355206489563,0,0,0.614355206489563,-27.2,-21.95)" stroke="none" d="M 104.4256 150.3766 C 106.9254 150.3766 109.1912 151.2201 110.8315 152.5822 C 112.4718 153.9448 113.4873 155.826 113.4873 157.9025 C 113.4873 159.979 112.4718 161.8602 110.8315 163.2228 C 109.1912 164.5848 106.9254 165.4283 104.4256 165.4283 C 101.9258 165.4283 99.66 164.5848 98.0197 163.2228 C 96.3794 161.8602 95.3639 159.979 95.3639 157.9025 C 95.3639 155.826 96.3794 153.9448 98.0197 152.5822 C 99.66 151.2201 101.9258 150.3766 104.4256 150.3766 Z " stroke-width="0.614355206489563"/>
    </g>
    <g id="ID0.021917566191405058">
      <path id="ID0.7719030035659671" fill="url(#grad_20-.31363508105278015,0.5282663702964783,-0.5282663702964783,0.31363508105278015,194.7,-119.2)" stroke="none" stroke-linecap="round" d="M 181.2218 117.4336 C 182.7177 119.497 185.4509 122.4941 183.8032 124.5397 C 178.4233 131.2333 171.909 135.1087 163.3099 140.2141 C 154.7108 145.3194 148.2365 149.4548 139.7373 150.7019 C 136.8985 151.1191 134.8224 147.2854 133.2074 144.8684 C 132.2039 142.8749 130.867 139.8626 132.3098 138.1915 C 137.9222 131.6886 144.204 127.6225 152.8031 122.5171 C 161.4022 117.4118 167.9384 113.6298 176.3757 112.0293 C 178.8611 111.5547 180.1775 115.2186 181.2218 117.4336 Z " stroke-width="0.6143552083715087"/>
      <g id="ID0.2649405491538346">
        <path id="ID0.5953479544259608" fill="url(#grad_21-.614355206489563,0,0,0.614355206489563,-24.55,-34.75)" stroke="none" d="M 186.1738 94.2646 C 190.6654 94.2646 194.7355 96.0886 197.6826 99.0363 C 200.6302 101.9834 202.4542 106.0535 202.4542 110.545 C 202.4542 115.0366 200.6302 119.1067 197.6826 122.0537 C 194.7355 125.0014 190.6654 126.8254 186.1738 126.8254 C 181.6823 126.8254 177.6122 125.0014 174.6651 122.0537 C 171.7174 119.1067 169.8934 115.0366 169.8934 110.545 C 169.8934 106.0535 171.7174 101.9834 174.6651 99.0363 C 177.6122 96.0886 181.6823 94.2646 186.1738 94.2646 Z " stroke-width="0.614355206489563"/>
        <path id="ID0.5953479544259608" fill="url(#grad_22-.34195244312286377,0,0,0.34195244312286377,54.1,27.65)" stroke="none" d="M 171.3897 99.46 C 173.8897 99.46 176.1551 100.4753 177.7955 102.116 C 179.4362 103.7563 180.4514 106.0217 180.4514 108.5218 C 180.4514 111.0218 179.4362 113.2872 177.7955 114.9275 C 176.1551 116.5682 173.8897 117.5835 171.3897 117.5835 C 168.8897 117.5835 166.6242 116.5682 164.9839 114.9275 C 163.3432 113.2872 162.3279 111.0218 162.3279 108.5218 C 162.3279 106.0217 163.3432 103.7563 164.9839 102.116 C 166.6242 100.4753 168.8897 99.46 171.3897 99.46 Z " stroke-width="0.34195244312286377"/>
      </g>
    </g>
    <g id="ID0.021917566191405058">
      <path id="ID0.7719030035659671" fill="url(#grad_23-0.31363508105278015,0.5282663702964783,0.5282663702964783,0.31363508105278015,8.05,-118.25)" stroke="none" stroke-linecap="round" d="M 21.5282 118.3836 C 20.0323 120.447 17.2991 123.4441 18.9468 125.4897 C 24.3267 132.1833 30.841 136.0587 39.4401 141.1641 C 48.0392 146.2694 54.5135 150.4048 63.0127 151.6519 C 65.8515 152.0691 67.9276 148.2354 69.5426 145.8184 C 70.5461 143.8249 71.883 140.8126 70.4402 139.1415 C 64.8278 132.6386 58.546 128.5725 49.9469 123.4671 C 41.3478 118.3618 34.8116 114.5798 26.3743 112.9793 C 23.8889 112.5047 22.5725 116.1686 21.5282 118.3836 Z " stroke-width="0.6143552083715087"/>
      <g id="ID0.2649405491538346">
        <path id="ID0.5953479544259608" fill="url(#grad_24-0.614355206489563,0,0,0.614355206489563,227.4,-33.8)" stroke="none" d="M 16.6762 95.2146 C 12.1846 95.2146 8.1145 97.0386 5.1674 99.9863 C 2.2198 102.9334 0.3958 107.0035 0.3958 111.495 C 0.3958 115.9866 2.2198 120.0567 5.1674 123.0037 C 8.1145 125.9514 12.1846 127.7754 16.6762 127.7754 C 21.1677 127.7754 25.2378 125.9514 28.1849 123.0037 C 31.1326 120.0567 32.9566 115.9866 32.9566 111.495 C 32.9566 107.0035 31.1326 102.9334 28.1849 99.9863 C 25.2378 97.0386 21.1677 95.2146 16.6762 95.2146 Z " stroke-width="0.614355206489563"/>
        <path id="ID0.5953479544259608" fill="url(#grad_25-0.34195244312286377,0,0,0.34195244312286377,148.65,28.55)" stroke="none" d="M 31.3603 100.36 C 28.8603 100.36 26.5949 101.3753 24.9545 103.016 C 23.3138 104.6563 22.2986 106.9217 22.2986 109.4218 C 22.2986 111.9218 23.3138 114.1872 24.9545 115.8275 C 26.5949 117.4682 28.8603 118.4835 31.3603 118.4835 C 33.8603 118.4835 36.1258 117.4682 37.7661 115.8275 C 39.4068 114.1872 40.4221 111.9218 40.4221 109.4218 C 40.4221 106.9217 39.4068 104.6563 37.7661 103.016 C 36.1258 101.3753 33.8603 100.36 31.3603 100.36 Z " stroke-width="0.34195244312286377"/>
      </g>
    </g>
  </g>
  <path id="ID0.4124654750339687" fill="#FFFFFF" stroke="none" stroke-linecap="round" d="M 158.6257 34.1815 L 163.9649 38.5284 L 149.4342 52.741 L 147.4765 51.1472 L 158.6257 34.1815 Z " stroke-width="0.4589963347292344"/>
  <path id="ID0.4124654750339687" fill="#FFFFFF" stroke="none" stroke-linecap="round" d="M 173.5947 48.2565 L 176.2608 54.6043 L 156.7519 60.3088 L 155.7743 57.9813 L 173.5947 48.2565 Z " stroke-width="0.4589963339027391"/>
  <path id="ID0.4124654750339687" fill="#FFFFFF" stroke="none" stroke-linecap="round" d="M 177.6159 70.8224 L 176.1912 77.5583 L 156.9074 71.1337 L 157.4298 68.6638 L 177.6159 70.8224 Z " stroke-width="0.4589963388606951"/>
</svg>