<svg version="1.1" width="469" height="348" viewBox="0.5 0.5 469 348" xmlns="http://www.w3.org/2000/svg" xmlns:xlink="http://www.w3.org/1999/xlink">
  <!-- Exported by Scratch - http://scratch.mit.edu/ -->
  <path id="ID0.18645305186510086" fill="none" stroke="#FFFFFF" stroke-width="2" d="M 1.5 1.5 L 468.5 1.5 L 468.5 347.5 L 1.5 347.5 L 1.5 1.5 Z "/>
  <path id="ID0.955288961995393" fill="none" stroke="#FFFFFF" d="M 235.25 164 C 239.181 164 242.744 165.597 245.324 168.176 C 247.903 170.756 249.5 174.319 249.5 178.25 C 249.5 182.181 247.903 185.744 245.324 188.324 C 242.744 190.903 239.181 192.5 235.25 192.5 C 231.319 192.5 227.756 190.903 225.176 188.324 C 222.597 185.744 221 182.181 221 178.25 C 221 174.319 222.597 170.756 225.176 168.176 C 227.756 165.597 231.319 164 235.25 164 Z " stroke-width="1"/>
  <path id="ID0.597265456803143" fill="#FFFFFF" stroke="none" d="M 96 310 L 375.5 310 L 375.5 311 L 96 311 L 96 310 Z " stroke-width="1"/>
  <path id="ID0.40711663756519556" fill="#FFFFFF" stroke="none" d="M 7 334.5 L 10.25 334.5 L 10.25 342.5 L 7 342.5 L 7 334.5 Z " stroke-width="1"/>
  <path id="ID0.7898913472890854" fill="none" stroke="#FFFFFF" stroke-width="2" stroke-linecap="round" d="M 362 50 L 467 50 "/>
</svg>