<svg version="1.1" width="352.22117769728607" height="245.491181969747" viewBox="-1.3589888215586896 -1.9859888479635472 352.22117769728607 245.491181969747" xmlns="http://www.w3.org/2000/svg" xmlns:xlink="http://www.w3.org/1999/xlink">
  <!-- Exported by Scratch - http://scratch.mit.edu/ -->
  <g id="ID0.8818968739360571">
    <path id="ID0.3813701272010803" fill="#FF0000" stroke="none" d="M 0.7516 0.1246 L 348.7516 0.1246 L 348.7516 241.3946 L 0.7516 241.3946 L 0.7516 0.1246 Z " stroke-width="1.5539840194960184"/>
    <g id="ID0.15183778014034033">
      <path id="ID0.6448049261234701" fill="none" stroke="#FFFFFF" stroke-width="3.19868706600883" d="M 88.7645 164.6735 L 176.7284 164.6735 L 176.7284 225.4486 L 88.7645 225.4486 L 88.7645 164.6735 Z "/>
      <path id="ID0.5249449112452567" fill="none" stroke="#FFFFFF" stroke-width="3.19868706600883" d="M 132.1692 189.046 C 133.9348 189.046 135.5342 189.7625 136.6921 190.9204 C 137.85 192.0783 138.5665 193.6777 138.5665 195.4433 C 138.5665 197.209 137.85 198.8083 136.6921 199.9663 C 135.5342 201.1242 133.9348 201.8407 132.1692 201.8407 C 130.4035 201.8407 128.8041 201.1242 127.6462 199.9663 C 126.4883 198.8083 125.7718 197.209 125.7718 195.4433 C 125.7718 193.6777 126.4883 192.0783 127.6462 190.9204 C 128.8041 189.7625 130.4035 189.046 132.1692 189.046 Z "/>
      <text id="ID0.012113474775105715" fill="#FFFFFF" text-anchor="start" font-family="Sans Serif" font-size="22" transform="matrix(0.591633, 0, 0, 0.591633, 116.557, 203.192)" stroke-width="1" alignment-baseline="text-before-edge" xml:space="preserve"><tspan x="0" style="white-space: pre" dy="1.13em">YOU</tspan></text>
      <path id="ID0.005012819543480873" fill="none" stroke="#FFFFFF" stroke-width="3.19868706600883" d="M 28.4053 206.6123 L 81.9833 206.6123 L 81.9833 224.6049 L 28.4053 224.6049 L 28.4053 206.6123 Z "/>
      <path id="ID0.005012819543480873" fill="none" stroke="#FFFFFF" stroke-width="3.19868706600883" d="M 184.2913 207.1384 L 237.8693 207.1384 L 237.8693 225.131 L 184.2913 225.131 L 184.2913 207.1384 Z "/>
      <path id="ID0.7680205977521837" fill="none" stroke="#FFFFFF" stroke-width="3.19868706600883" d="M 220.3267 146.2082 L 237.5197 146.2082 L 237.5197 200.9857 L 220.3267 200.9857 L 220.3267 146.2082 Z "/>
      <path id="ID0.7680205977521837" fill="none" stroke="#FFFFFF" stroke-width="3.19868706600883" d="M 29.6407 145.231 L 46.8337 145.231 L 46.8337 200.0086 L 29.6407 200.0086 L 29.6407 145.231 Z "/>
      <path id="ID0.07189068151637912" fill="none" stroke="#FFFFFF" stroke-width="4.22117769728608" d="M 28.2926 64.4825 L 181.0783 64.4825 L 181.0783 138.5624 L 28.2926 138.5624 L 28.2926 64.4825 Z "/>
      <path id="ID0.7336778393946588" fill="none" stroke="#FFFFFF" stroke-width="3.287563113674559" d="M 187.1132 63.7454 L 238.692 63.7454 L 238.692 138.8191 L 187.1132 138.8191 L 187.1132 63.7454 Z "/>
      <path id="ID0.36882741330191493" fill="none" stroke="#FFFFFF" stroke-width="3.19868706600883" d="M 244.3107 64.9903 L 270.6999 64.9903 L 270.6999 96.9772 L 244.3107 96.9772 L 244.3107 64.9903 Z "/>
      <path id="ID0.36882741330191493" fill="none" stroke="#FFFFFF" stroke-width="3.19868706600883" d="M 244.6113 105.0517 L 271.0005 105.0517 L 271.0005 137.0385 L 244.6113 137.0385 L 244.6113 105.0517 Z "/>
      <path id="ID0.03371161827817559" fill="none" stroke="#FFFFFF" stroke-width="3.19868706600883" d="M 28.4117 12.3143 L 85.988 12.3143 L 85.988 55.8964 L 28.4117 55.8964 L 28.4117 12.3143 Z "/>
      <path id="ID0.2123469663783908" fill="none" stroke="#FFFFFF" stroke-width="3.3559954611016343" d="M 125.9174 12.4737 L 180.2951 12.4737 L 180.2951 54.5487 L 125.9174 54.5487 L 125.9174 12.4737 Z "/>
    </g>
    <path id="ID0.5286605493165553" fill="none" stroke="#FFFFFF" stroke-width="2.144502640694132" stroke-linecap="round" d="M 27.5056 238.2214 L 35.7314 229.3865 L 43.9572 238.2214 L 27.5056 238.2214 Z "/>
  </g>
</svg>